<svg viewBox="0 0 284 380" fill="none" xmlns="http://www.w3.org/2000/svg">
<path d="M11.2132 79.7393L8.38476 61.3545L25.3553 65.5972L283.449 323.691L269.307 337.833L11.2132 79.7393Z" fill="#C20619"/>
<path d="M224.052 313.792L259.408 278.436L266.479 285.507L231.123 320.863L224.052 313.792Z" fill="#FBEBD8"/>
<path d="M258.701 65.5972L277.085 62.7687L272.843 79.7393L14.7487 337.833L0.606567 323.691L258.701 65.5972Z" fill="#C20619"/>
<path d="M24.6482 278.436L60.0035 313.792L52.9325 320.863L17.5771 285.507L24.6482 278.436Z" fill="#FBEBD8"/>
<path d="M154.645 365L143.645 380L134.645 365V-7.62939e-06H154.645V365Z" fill="#C20619"/>
<path d="M169.645 49H119.645V39H169.645V49Z" fill="#FBEBD8"/>
<path d="M44.3815 83.8818L144.881 70.3793L244.381 83.8818V224.777L241.883 244.379L234.871 262.379L223.381 279.147L208.381 293.334L193.381 303.116L176.881 310.58L141.381 321.379L102.881 308.03L86.3815 298.594L72.5447 287.379L60.8815 274.044L51.7401 258.379L46.2379 241.879L44.3815 224.777V83.8818Z" fill="#F03134"/>
<path d="M44.3815 224.777L46.2379 241.879L51.7401 258.379L60.8815 274.044L72.5447 287.379L86.3815 298.594L102.881 308.03L141.381 321.379L176.881 310.58L193.381 303.116L208.381 293.334L223.381 279.147L234.871 262.379L241.883 244.379L244.381 224.777C244.381 264.403 214.258 299.764 169.092 313.161L141.381 321.379L119.128 314.371C74.1195 300.196 44.3815 264.551 44.3815 224.777Z" fill="#F03134"/>
<path d="M52.3815 92.7521L144.339 80.3793L235.381 92.7521V221.86L233.452 238.379L228.381 252.898L219.63 267.379L208.172 279.879L192.658 291.379L176.381 299.428L141.136 310.379L106.881 298.6L93.6488 291.379L81.8815 282.621L69.8815 270.166L60.1659 254.879L54.2711 238.379L52.3815 221.86V92.7521Z" fill="#FFFAEF"/>
<path d="M52.3815 221.86L54.2711 238.379L60.1659 254.879L69.8815 270.166L81.8815 282.621L93.6488 291.379L106.881 298.6L141.136 310.379L176.381 299.428L192.658 291.379L208.172 279.879L219.63 267.379L228.381 252.898L233.452 238.379L235.381 221.86C235.381 258.17 207.819 290.573 166.491 302.848L141.136 310.379L120.775 303.957C79.5917 290.968 52.3815 258.306 52.3815 221.86Z" fill="#FFFAEF"/>
<path d="M60.3815 101.515L144.299 90.3793L227.381 101.515V217.712L225.668 232.379L221.119 245.379L213.611 257.879L202.381 270.081L189.881 279.376L175.381 286.782L141.376 297.379L121.381 291.149L104.881 284.219L88.3815 273.302L76.3815 261.225L67.4605 247.379L62.0593 232.379L60.3815 217.712V101.515Z" fill="#F03134"/>
<path d="M60.3815 217.712L62.0593 232.379L67.4605 247.379L76.3815 261.225L88.3815 273.302L104.881 284.219L121.381 291.149L141.376 297.379L175.381 286.782L189.881 279.376L202.381 270.081L213.611 257.879L221.119 245.379L225.668 232.379L227.381 217.712C227.381 250.391 202.229 279.553 164.515 290.601L141.376 297.379L122.795 291.599C85.2127 279.909 60.3815 250.513 60.3815 217.712Z" fill="#F03134"/>
<path d="M95.2744 144.62C101.791 144.806 107.191 144.946 111.474 145.039C115.849 145.039 119.387 145.039 122.087 145.039H171.103C171.29 146.901 171.429 148.716 171.522 150.485C171.709 152.161 171.802 153.651 171.802 154.954C171.802 156.537 171.755 157.98 171.662 159.283C171.569 160.587 171.429 161.983 171.243 163.473C171.057 164.776 170.871 166.173 170.685 167.662C170.498 169.152 170.172 170.688 169.707 172.271C168.404 167.243 166.635 163.426 164.4 160.819C162.259 158.213 160.071 156.304 157.837 155.094C155.23 153.697 152.484 152.952 149.598 152.859C145.781 153.046 142.801 153.371 140.66 153.837C138.519 154.302 136.843 154.954 135.633 155.792C134.422 156.63 133.492 157.607 132.84 158.725C132.281 159.749 131.676 160.912 131.024 162.216C130.466 163.333 129.954 165.055 129.488 167.383C129.023 169.338 128.557 171.991 128.092 175.343C127.719 178.694 127.3 183.023 126.835 188.33C129.349 187.585 131.35 186.887 132.84 186.235C134.422 185.584 135.679 185.025 136.61 184.56C137.634 184.001 138.379 183.489 138.845 183.023C139.217 182.465 139.776 181.441 140.52 179.951C141.079 178.648 141.824 176.879 142.755 174.645C143.779 172.41 144.989 169.338 146.386 165.428C146.572 169.71 146.665 173.295 146.665 176.181C146.665 178.974 146.712 181.255 146.805 183.023C146.805 185.072 146.851 186.701 146.944 187.911V193.218C146.944 195.173 146.944 197.826 146.944 201.178C147.037 204.436 147.177 208.579 147.363 213.606C146.246 210.162 145.222 207.462 144.291 205.507C143.453 203.459 142.708 201.923 142.057 200.898C141.312 199.688 140.66 198.85 140.102 198.385C139.45 198.199 138.565 198.012 137.448 197.826C136.424 197.733 135.121 197.687 133.538 197.687C132.048 197.687 130.14 197.919 127.812 198.385C127.533 203.505 127.487 207.648 127.673 210.813C127.952 213.886 128.325 216.26 128.79 217.936C129.256 219.891 129.814 221.287 130.466 222.125C131.304 222.963 132.979 223.661 135.493 224.22C138.007 224.685 140.846 224.871 144.012 224.778C147.27 224.592 150.575 224.034 153.927 223.103C157.278 222.172 160.257 220.635 162.864 218.494C164.819 216.725 166.914 214.491 169.148 211.791C171.01 209.464 173.059 206.531 175.293 202.993C177.62 199.455 179.901 195.173 182.136 190.146C181.763 194.335 181.484 197.826 181.298 200.619C181.205 203.319 181.065 205.507 180.879 207.183C180.693 209.138 180.553 210.627 180.46 211.651C180.46 212.769 180.32 214.351 180.041 216.399C179.855 218.168 179.529 220.589 179.063 223.661C178.691 226.64 178.179 230.457 177.527 235.112C173.152 235.205 169.009 235.298 165.099 235.392C161.188 235.392 157.744 235.438 154.765 235.531C151.227 235.624 147.968 235.717 144.989 235.811C141.917 235.811 138.519 235.95 134.795 236.229C131.536 236.416 127.673 236.695 123.204 237.067C118.828 237.44 113.987 237.952 108.681 238.604C109.146 232.273 109.472 226.314 109.658 220.729C109.937 215.049 110.124 210.069 110.217 205.786C110.31 200.759 110.31 196.104 110.217 191.821C110.682 181.115 110.496 172.457 109.658 165.847C108.82 159.237 107.843 155.001 106.726 153.139C106.167 152.487 105.376 151.696 104.352 150.765C103.514 150.02 102.35 149.135 100.86 148.111C99.3707 147.087 97.5088 145.923 95.2744 144.62Z" fill="white"/>
</svg>
