<svg width="49" height="64" viewBox="0 0 49 64" fill="none" xmlns="http://www.w3.org/2000/svg">
<g filter="url(#filter0_d_17_886)">
<path d="M5.5375 11.7511L5.1275 9.04172L7.5875 9.66695L45 47.7018L42.95 49.786L5.5375 11.7511Z" fill="#C20619"/>
<path d="M36.39 46.243L41.515 41.0327L42.54 42.0748L37.415 47.285L36.39 46.243Z" fill="#FBEBD8"/>
<path d="M41.4125 9.66695L44.0775 9.25013L43.4625 11.7511L6.05 49.786L4 47.7019L41.4125 9.66695Z" fill="#C20619"/>
<path d="M7.485 41.0327L12.61 46.243L11.585 47.285L6.46 42.0748L7.485 41.0327Z" fill="#FBEBD8"/>
<path d="M26.3289 53.7895L24.7344 56L23.4298 53.7895V0H26.3289V53.7895Z" fill="#C20619"/>
<path d="M28.5033 7.22105H21.2554V5.74737H28.5033V7.22105Z" fill="#FBEBD8"/>
<path d="M10.3455 12.3615L24.9136 10.3717L39.3368 12.3615V33.1251H10.3455V12.3615Z" fill="#F03134"/>
<path d="M10.3455 33.1251H39.3368C39.3368 38.9646 34.9703 44.1758 28.4231 46.15L24.4063 47.3612L21.1805 46.3283C14.6562 44.2394 10.3455 38.9865 10.3455 33.1251Z" fill="#F03134"/>
<path d="M11.5051 13.6687L24.835 11.8454L38.0322 13.6687V32.6951H11.5051V13.6687Z" fill="#FFFAEF"/>
<path d="M11.5051 32.6951H38.0322C38.0322 38.0461 34.0369 42.8213 28.0462 44.6303L24.3708 45.7401L21.4192 44.7937C15.4494 42.8795 11.5051 38.0661 11.5051 32.6951Z" fill="#FFFAEF"/>
<path d="M12.6648 14.9601L24.8292 13.3191L36.8726 14.9601V32.0838H12.6648V14.9601Z" fill="#F03134"/>
<path d="M12.6648 32.0838H36.8726C36.8726 36.8997 33.2265 41.1974 27.7596 42.8255L24.4056 43.8243L21.7121 42.9726C16.2642 41.2498 12.6648 36.9177 12.6648 32.0838Z" fill="#F03134"/>
<path d="M17.4591 21.0242C18.4368 21.0526 19.2469 21.0739 19.8894 21.0881C20.5459 21.0881 21.0766 21.0881 21.4817 21.0881H28.8354C28.8633 21.3721 28.8843 21.649 28.8982 21.9188C28.9262 22.1744 28.9401 22.4016 28.9401 22.6004C28.9401 22.8418 28.9332 23.0619 28.9192 23.2607C28.9052 23.4595 28.8843 23.6725 28.8563 23.8997C28.8284 24.0984 28.8005 24.3114 28.7725 24.5386C28.7446 24.7658 28.6957 25.0001 28.6259 25.2415C28.4303 24.4747 28.165 23.8926 27.8298 23.495C27.5085 23.0974 27.1803 22.8063 26.8451 22.6217C26.454 22.4087 26.042 22.2951 25.609 22.2809C25.0363 22.3093 24.5894 22.359 24.2681 22.43C23.9469 22.501 23.6955 22.6004 23.5139 22.7282C23.3323 22.856 23.1926 23.0051 23.0949 23.1755C23.0111 23.3317 22.9203 23.5092 22.8225 23.708C22.7387 23.8784 22.6619 24.141 22.5921 24.496C22.5222 24.7942 22.4524 25.1989 22.3825 25.7101C22.3267 26.2213 22.2638 26.8816 22.194 27.6909C22.5711 27.5773 22.8714 27.4708 23.0949 27.3714C23.3323 27.272 23.5209 27.1869 23.6605 27.1159C23.8142 27.0307 23.9259 26.9526 23.9958 26.8816C24.0516 26.7964 24.1354 26.6402 24.2472 26.413C24.331 26.2142 24.4427 25.9444 24.5824 25.6036C24.736 25.2628 24.9176 24.7942 25.1271 24.1978C25.155 24.851 25.169 25.3977 25.169 25.8379C25.169 26.2639 25.176 26.6118 25.19 26.8816C25.19 27.194 25.1969 27.4424 25.2109 27.627V28.4364C25.2109 28.7346 25.2109 29.1393 25.2109 29.6505C25.2249 30.1475 25.2458 30.7793 25.2738 31.5461C25.1062 31.0207 24.9525 30.6089 24.8128 30.3108C24.6871 29.9984 24.5754 29.7641 24.4776 29.6079C24.3659 29.4233 24.2681 29.2955 24.1843 29.2245C24.0865 29.1961 23.9539 29.1677 23.7863 29.1393C23.6326 29.1251 23.4371 29.118 23.1996 29.118C22.9762 29.118 22.6898 29.1535 22.3406 29.2245C22.2987 30.0055 22.2918 30.6373 22.3197 31.1201C22.3616 31.5887 22.4175 31.9508 22.4873 32.2064C22.5571 32.5046 22.6409 32.7176 22.7387 32.8454C22.8644 32.9732 23.1158 33.0797 23.4929 33.1649C23.8701 33.2359 24.2961 33.2643 24.7709 33.2501C25.2598 33.2217 25.7556 33.1365 26.2584 32.9945C26.7613 32.8525 27.2082 32.6182 27.5993 32.2916C27.8926 32.0218 28.2069 31.681 28.5421 31.2692C28.8214 30.9142 29.1287 30.467 29.4639 29.9274C29.8131 29.3878 30.1553 28.7346 30.4905 27.9678C30.4346 28.6068 30.3927 29.1393 30.3648 29.5653C30.3508 29.9771 30.3299 30.3108 30.302 30.5663C30.274 30.8645 30.2531 31.0917 30.2391 31.2479C30.2391 31.4183 30.2181 31.6597 30.1762 31.9721C30.1483 32.2419 30.0994 32.6111 30.0296 33.0797C29.9737 33.5341 29.8969 34.1162 29.7991 34.8262C29.1427 34.8404 28.5211 34.8546 27.9345 34.8688C27.3479 34.8688 26.8311 34.8759 26.3842 34.8901C25.8534 34.9043 25.3645 34.9185 24.9176 34.9327C24.4567 34.9327 23.9469 34.954 23.3882 34.9966C22.8993 35.025 22.3197 35.0676 21.6493 35.1244C20.9928 35.1812 20.2665 35.2593 19.4704 35.3587C19.5402 34.3931 19.5891 33.4844 19.617 32.6324C19.6589 31.7662 19.6869 31.0065 19.7008 30.3534C19.7148 29.5866 19.7148 28.8766 19.7008 28.2234C19.7707 26.5905 19.7427 25.2699 19.617 24.2617C19.4913 23.2536 19.3447 22.6075 19.1771 22.3235C19.0933 22.2241 18.9746 22.1034 18.8209 21.9614C18.6952 21.8478 18.5206 21.7129 18.2971 21.5567C18.0737 21.4005 17.7943 21.223 17.4591 21.0242Z" fill="white"/>
</g>
<defs>
<filter id="filter0_d_17_886" x="0" y="0" width="49" height="64" filterUnits="userSpaceOnUse" color-interpolation-filters="sRGB">
<feFlood flood-opacity="0" result="BackgroundImageFix"/>
<feColorMatrix in="SourceAlpha" type="matrix" values="0 0 0 0 0 0 0 0 0 0 0 0 0 0 0 0 0 0 127 0" result="hardAlpha"/>
<feOffset dy="4"/>
<feGaussianBlur stdDeviation="2"/>
<feComposite in2="hardAlpha" operator="out"/>
<feColorMatrix type="matrix" values="0 0 0 0 0 0 0 0 0 0 0 0 0 0 0 0 0 0 0.25 0"/>
<feBlend mode="normal" in2="BackgroundImageFix" result="effect1_dropShadow_17_886"/>
<feBlend mode="normal" in="SourceGraphic" in2="effect1_dropShadow_17_886" result="shape"/>
</filter>
</defs>
</svg>
