<?xml version="1.0" standalone="no"?>
<!DOCTYPE svg PUBLIC "-//W3C//DTD SVG 20010904//EN"
 "http://www.w3.org/TR/2001/REC-SVG-20010904/DTD/svg10.dtd">
<svg version="1.0" xmlns="http://www.w3.org/2000/svg"
 width="760.000000pt" height="760.000000pt" viewBox="0 0 760.000000 760.000000"
 preserveAspectRatio="xMidYMid meet">
<metadata>
Created by potrace 1.14, written by Peter Selinger 2001-2017
</metadata>
<g transform="translate(0.000000,760.000000) scale(0.100000,-0.100000)"
fill="#000000" stroke="none">
<path d="M3654 7219 c1 -209 -1 -384 -4 -388 -6 -9 -6 -9 -170 -13 l-125 -3 0
-95 0 -95 73 -5 c41 -3 79 -2 84 1 6 4 23 3 38 -1 15 -4 33 -5 39 -1 6 4 24 6
39 3 l27 -4 -2 -214 c0 -118 -2 -220 -2 -228 -1 -8 -9 -14 -18 -14 -10 0 -31
-2 -48 -5 -28 -5 -54 -9 -160 -23 -22 -3 -51 -7 -65 -9 -14 -2 -47 -7 -75 -10
-27 -3 -61 -7 -75 -10 -14 -2 -50 -7 -80 -10 -30 -3 -62 -8 -70 -10 -8 -2 -40
-7 -70 -10 -72 -8 -101 -12 -149 -20 -22 -4 -57 -8 -78 -10 -21 -2 -56 -6 -78
-10 -22 -3 -56 -8 -75 -10 -19 -3 -51 -8 -71 -10 -20 -3 -51 -7 -70 -10 -19
-2 -50 -6 -69 -9 -19 -3 -55 -8 -80 -11 -25 -2 -56 -7 -70 -9 -14 -3 -52 -8
-84 -11 -33 -3 -62 -8 -65 -9 -3 -2 -35 -7 -71 -10 -36 -4 -76 -8 -90 -11 -14
-2 -43 -6 -65 -10 l-39 -6 -186 185 c-191 191 -188 189 -292 212 -27 6 -48 11
-118 29 -125 32 -113 34 -105 -21 4 -27 9 -59 10 -71 3 -21 13 -85 20 -123 1
-8 6 -39 10 -69 l7 -54 333 -333 333 -333 1 -1143 c0 -1075 2 -1249 16 -1323
9 -54 18 -100 21 -110 1 -5 7 -32 13 -60 11 -47 18 -70 37 -120 4 -11 8 -23 9
-27 2 -5 4 -10 5 -13 1 -3 3 -8 5 -12 11 -42 113 -250 125 -258 6 -3 10 -12
10 -19 0 -14 -417 -432 -428 -429 -4 2 -52 48 -108 103 l-101 101 -71 -71 -71
-72 106 -104 107 -104 -32 -33 c-18 -18 -140 -141 -272 -273 -132 -131 -240
-243 -240 -248 0 -11 266 -276 276 -276 4 0 128 122 277 270 148 149 271 270
274 270 2 0 51 -47 109 -104 l105 -104 64 68 c36 36 65 71 65 77 0 5 -19 28
-43 50 -23 23 -68 68 -100 101 l-58 59 192 192 c105 105 195 190 199 189 5 -2
39 -32 77 -68 101 -95 154 -140 163 -140 4 0 13 -6 19 -14 14 -16 186 -133
246 -166 144 -81 435 -209 435 -193 0 3 7 0 15 -7 8 -7 15 -9 15 -5 0 4 6 3
13 -2 10 -9 25 -14 82 -29 6 -1 44 -13 85 -27 41 -14 94 -30 118 -36 23 -7 42
-17 43 -24 0 -7 1 -214 2 -462 l2 -450 33 -55 c55 -92 142 -234 147 -238 3 -3
8 3 12 14 4 10 16 29 27 42 12 13 35 43 51 67 17 23 53 74 80 111 l50 69 -1
472 c-1 422 1 473 15 478 14 6 169 53 196 59 6 2 17 5 25 9 8 3 49 15 90 27
41 13 89 29 107 36 17 8 38 14 46 14 9 0 23 8 33 18 10 9 20 16 23 15 11 -5
76 20 104 39 15 11 27 17 27 14 0 -11 211 108 267 150 17 13 34 24 37 24 3 0
27 17 54 38 27 20 66 51 88 67 21 17 59 49 84 73 24 23 48 42 51 42 4 0 84
-77 179 -171 l172 -171 -54 -55 c-29 -30 -77 -78 -105 -106 l-53 -52 67 -67
c37 -38 71 -68 76 -68 4 0 53 45 107 100 54 55 101 100 104 100 3 0 126 -121
275 -270 148 -148 273 -270 278 -270 4 0 70 62 145 138 l138 138 -225 225
c-124 123 -248 247 -276 275 l-52 52 106 105 106 106 -69 71 -70 72 -105 -104
c-58 -56 -108 -102 -111 -101 -8 2 -60 52 -133 128 -36 36 -70 69 -75 73 -6 4
-46 44 -89 89 -76 80 -77 82 -60 102 32 38 103 170 103 192 0 5 5 9 10 9 6 0
10 9 10 20 0 11 4 20 10 20 5 0 7 7 4 15 -4 8 -2 15 3 15 8 0 43 93 44 117 1
5 4 13 9 18 9 12 56 210 66 280 4 28 8 608 10 1291 l3 1241 284 284 284 284
36 145 c20 80 40 156 43 169 7 24 6 24 -42 17 -27 -4 -62 -9 -79 -11 -16 -2
-43 -6 -60 -9 -16 -2 -64 -10 -106 -16 l-76 -12 -178 -179 c-155 -155 -182
-178 -205 -174 -14 3 -49 8 -79 11 -30 3 -64 8 -75 10 -12 3 -37 7 -56 9 -19
2 -53 6 -75 9 -22 3 -60 8 -85 11 -25 4 -61 9 -80 12 -19 3 -48 7 -65 8 -16 2
-50 7 -75 10 -25 3 -58 8 -75 10 -16 2 -43 6 -60 9 -16 3 -52 8 -80 11 -27 3
-61 8 -75 10 -14 2 -44 7 -67 10 -67 8 -117 15 -138 19 -11 2 -47 7 -80 10
-33 4 -71 9 -85 11 -14 2 -45 7 -70 10 -25 3 -56 8 -70 10 -14 2 -45 6 -70 10
-100 13 -189 25 -220 30 -13 2 -15 35 -16 229 l0 227 135 0 c75 0 143 0 151 0
13 1 15 17 13 96 -1 52 -4 97 -7 100 -2 3 -69 4 -149 4 l-144 -2 0 388 0 388
-200 3 -200 2 1 -381z"/>
</g>
</svg>
