<svg xmlns="http://www.w3.org/2000/svg" viewBox="0 -0.5 34 34" shape-rendering="crispEdges">
<metadata>Made with Pixels to Svg https://codepen.io/shshaw/pen/XbxvNj</metadata>
<path stroke="#61c200" d="M0 0h11M13 0h21M0 1h11M13 1h21M0 2h5M6 2h5M14 2h16M33 2h1M0 3h2M6 3h28M0 4h2M6 4h28M0 5h22M24 5h10M0 6h22M24 6h10M0 7h22M24 7h10M0 8h22M24 8h10M0 9h22M24 9h10M0 10h34M0 11h6M10 11h24M0 12h6M10 12h24M0 13h6M8 13h19M29 13h5M0 14h6M8 14h17M29 14h5M0 15h6M8 15h17M29 15h5M0 16h34M0 17h34M0 18h34M0 19h16M19 19h15M0 20h16M19 20h15M0 21h6M8 21h8M17 21h7M25 21h5M32 21h2M0 22h3M6 22h16M24 22h5M33 22h1M0 23h3M6 23h16M24 23h5M33 23h1M0 24h30M32 24h2M0 25h32M33 25h1M0 26h32M33 26h1M0 27h34M0 28h34M0 29h5M10 29h12M24 29h10M0 30h19M22 30h12M0 31h19M22 31h12M0 32h3M5 32h16M22 32h12M0 33h2M5 33h25M32 33h2" />
<path stroke="#57ad00" d="M11 0h2M11 1h2M5 2h1M13 2h1M30 2h2M2 3h1M5 3h1M2 4h1M5 4h1M22 5h2M22 8h2M22 9h2M6 11h4M6 12h4M27 13h2M6 14h2M25 14h2M6 15h2M25 15h2M17 19h2M17 20h2M6 21h2M16 21h1M24 21h1M30 21h2M3 22h2M22 22h2M29 22h1M32 22h1M3 23h2M22 23h2M29 23h1M32 23h1M30 24h2M32 25h1M32 26h1M5 29h1M8 29h2M22 29h2M19 30h2M19 31h2M3 32h2M21 32h1M2 33h1M30 33h2" />
<path stroke="#4d9900" d="M11 2h2M32 2h1M3 3h2M3 4h2M22 6h2M22 7h2M6 13h2M27 14h2M27 15h2M16 19h1M16 20h1M5 22h1M30 22h2M5 23h1M30 23h2M6 29h2M21 30h1M21 31h1M3 33h2" />
</svg>