<svg xmlns="http://www.w3.org/2000/svg" viewBox="0 -0.5 38 38" shape-rendering="crispEdges">
<metadata>Made with Pixels to Svg https://codepen.io/shshaw/pen/XbxvNj</metadata>
<path stroke="#006700" d="M0 0h2M7 0h1M13 0h2M19 0h2M26 0h1M32 0h2M0 1h2M7 1h1M13 1h2M19 1h2M26 1h1M32 1h2M4 2h3M10 2h3M16 2h3M23 2h3M29 2h3M35 2h3M4 3h3M10 3h3M16 3h3M23 3h3M29 3h3M35 3h3M4 4h1M10 4h2M16 4h2M23 4h1M29 4h2M35 4h2M0 5h4M7 5h3M13 5h3M19 5h4M26 5h3M32 5h3M0 6h4M7 6h3M13 6h3M19 6h4M26 6h3M32 6h3M0 7h2M7 7h1M13 7h2M19 7h2M26 7h1M32 7h2M4 8h3M10 8h3M16 8h3M23 8h3M29 8h3M35 8h3M4 9h3M10 9h3M16 9h3M23 9h3M29 9h3M35 9h3M4 10h1M10 10h2M16 10h2M23 10h1M29 10h2M35 10h2M4 11h1M10 11h2M16 11h2M23 11h1M29 11h2M35 11h2M0 12h4M7 12h3M13 12h3M19 12h4M26 12h3M32 12h3M0 13h2M7 13h1M13 13h2M19 13h2M26 13h1M32 13h2M0 14h2M7 14h1M13 14h2M19 14h2M26 14h1M32 14h2M4 15h3M10 15h3M16 15h3M23 15h3M29 15h3M35 15h3M4 16h1M10 16h2M16 16h2M23 16h1M29 16h2M35 16h2M4 17h1M10 17h2M16 17h2M23 17h1M29 17h2M35 17h2M0 18h4M7 18h3M13 18h3M19 18h4M26 18h3M32 18h3M0 19h2M7 19h1M13 19h2M19 19h2M26 19h1M32 19h2M0 20h2M7 20h1M13 20h2M19 20h2M26 20h1M32 20h2M4 21h3M10 21h3M16 21h3M23 21h3M29 21h3M35 21h3M4 22h3M10 22h3M16 22h3M23 22h3M29 22h3M35 22h3M4 23h1M10 23h2M16 23h2M23 23h1M29 23h2M35 23h2M0 24h4M7 24h3M13 24h3M19 24h4M26 24h3M32 24h3M0 25h4M7 25h3M13 25h3M19 25h4M26 25h3M32 25h3M0 26h2M7 26h1M13 26h2M19 26h2M26 26h1M32 26h2M4 27h3M10 27h3M16 27h3M23 27h3M29 27h3M35 27h3M4 28h3M10 28h3M16 28h3M23 28h3M29 28h3M35 28h3M4 29h1M10 29h2M16 29h2M23 29h1M29 29h2M35 29h2M4 30h1M10 30h2M16 30h2M23 30h1M29 30h2M35 30h2M0 31h4M7 31h3M13 31h3M19 31h4M26 31h3M32 31h3M0 32h2M7 32h1M13 32h2M19 32h2M26 32h1M32 32h2M0 33h2M7 33h1M13 33h2M19 33h2M26 33h1M32 33h2M4 34h3M10 34h3M16 34h3M23 34h3M29 34h3M35 34h3M4 35h1M10 35h2M16 35h2M23 35h1M29 35h2M35 35h2M4 36h1M10 36h2M16 36h2M23 36h1M29 36h2M35 36h2" />
<path stroke="#005500" d="M2 0h2M8 0h2M15 0h1M21 0h2M27 0h2M34 0h1M2 1h2M8 1h2M15 1h1M21 1h2M27 1h2M34 1h1M0 2h2M7 2h1M13 2h2M19 2h2M26 2h1M32 2h2M0 3h2M7 3h1M13 3h2M19 3h2M26 3h1M32 3h2M5 4h2M12 4h1M18 4h1M24 4h2M31 4h1M37 4h1M4 5h1M10 5h2M16 5h2M23 5h1M29 5h2M35 5h2M4 6h1M10 6h2M16 6h2M23 6h1M29 6h2M35 6h2M2 7h2M8 7h2M15 7h1M21 7h2M27 7h2M34 7h1M0 8h2M7 8h1M13 8h2M19 8h2M26 8h1M32 8h2M0 9h2M7 9h1M13 9h2M19 9h2M26 9h1M32 9h2M5 10h2M12 10h1M18 10h1M24 10h2M31 10h1M37 10h1M5 11h2M12 11h1M18 11h1M24 11h2M31 11h1M37 11h1M4 12h1M10 12h2M16 12h2M23 12h1M29 12h2M35 12h2M2 13h2M8 13h2M15 13h1M21 13h2M27 13h2M34 13h1M2 14h2M8 14h2M15 14h1M21 14h2M27 14h2M34 14h1M0 15h2M7 15h1M13 15h2M19 15h2M26 15h1M32 15h2M5 16h2M12 16h1M18 16h1M24 16h2M31 16h1M37 16h1M5 17h2M12 17h1M18 17h1M24 17h2M31 17h1M37 17h1M4 18h1M10 18h2M16 18h2M23 18h1M29 18h2M35 18h2M2 19h2M8 19h2M15 19h1M21 19h2M27 19h2M34 19h1M2 20h2M8 20h2M15 20h1M21 20h2M27 20h2M34 20h1M0 21h2M7 21h1M13 21h2M19 21h2M26 21h1M32 21h2M0 22h2M7 22h1M13 22h2M19 22h2M26 22h1M32 22h2M5 23h2M12 23h1M18 23h1M24 23h2M31 23h1M37 23h1M4 24h1M10 24h2M16 24h2M23 24h1M29 24h2M35 24h2M4 25h1M10 25h2M16 25h2M23 25h1M29 25h2M35 25h2M2 26h2M8 26h2M15 26h1M21 26h2M27 26h2M34 26h1M0 27h2M7 27h1M13 27h2M19 27h2M26 27h1M32 27h2M0 28h2M7 28h1M13 28h2M19 28h2M26 28h1M32 28h2M5 29h2M12 29h1M18 29h1M24 29h2M31 29h1M37 29h1M5 30h2M12 30h1M18 30h1M24 30h2M31 30h1M37 30h1M4 31h1M10 31h2M16 31h2M23 31h1M29 31h2M35 31h2M2 32h2M8 32h2M15 32h1M21 32h2M27 32h2M34 32h1M2 33h2M8 33h2M15 33h1M21 33h2M27 33h2M34 33h1M0 34h2M7 34h1M13 34h2M19 34h2M26 34h1M32 34h2M5 35h2M12 35h1M18 35h1M24 35h2M31 35h1M37 35h1M5 36h2M12 36h1M18 36h1M24 36h2M31 36h1M37 36h1" />
<path stroke="#007d00" d="M4 0h3M10 0h3M16 0h3M23 0h3M29 0h3M35 0h3M4 1h3M10 1h3M16 1h3M23 1h3M29 1h3M35 1h3M2 2h2M8 2h2M15 2h1M21 2h2M27 2h2M34 2h1M2 3h2M8 3h2M15 3h1M21 3h2M27 3h2M34 3h1M0 4h4M7 4h3M13 4h3M19 4h4M26 4h3M32 4h3M5 5h2M12 5h1M18 5h1M24 5h2M31 5h1M37 5h1M5 6h2M12 6h1M18 6h1M24 6h2M31 6h1M37 6h1M4 7h3M10 7h3M16 7h3M23 7h3M29 7h3M35 7h3M2 8h2M8 8h2M15 8h1M21 8h2M27 8h2M34 8h1M2 9h2M8 9h2M15 9h1M21 9h2M27 9h2M34 9h1M0 10h4M7 10h3M13 10h3M19 10h4M26 10h3M32 10h3M0 11h4M7 11h3M13 11h3M19 11h4M26 11h3M32 11h3M5 12h2M12 12h1M18 12h1M24 12h2M31 12h1M37 12h1M4 13h3M10 13h3M16 13h3M23 13h3M29 13h3M35 13h3M4 14h3M10 14h3M16 14h3M23 14h3M29 14h3M35 14h3M2 15h2M8 15h2M15 15h1M21 15h2M27 15h2M34 15h1M0 16h4M7 16h3M13 16h3M19 16h4M26 16h3M32 16h3M0 17h4M7 17h3M13 17h3M19 17h4M26 17h3M32 17h3M5 18h2M12 18h1M18 18h1M24 18h2M31 18h1M37 18h1M4 19h3M10 19h3M16 19h3M23 19h3M29 19h3M35 19h3M4 20h3M10 20h3M16 20h3M23 20h3M29 20h3M35 20h3M2 21h2M8 21h2M15 21h1M21 21h2M27 21h2M34 21h1M2 22h2M8 22h2M15 22h1M21 22h2M27 22h2M34 22h1M0 23h4M7 23h3M13 23h3M19 23h4M26 23h3M32 23h3M5 24h2M12 24h1M18 24h1M24 24h2M31 24h1M37 24h1M5 25h2M12 25h1M18 25h1M24 25h2M31 25h1M37 25h1M4 26h3M10 26h3M16 26h3M23 26h3M29 26h3M35 26h3M2 27h2M8 27h2M15 27h1M21 27h2M27 27h2M34 27h1M2 28h2M8 28h2M15 28h1M21 28h2M27 28h2M34 28h1M0 29h4M7 29h3M13 29h3M19 29h4M26 29h3M32 29h3M0 30h4M7 30h3M13 30h3M19 30h4M26 30h3M32 30h3M5 31h2M12 31h1M18 31h1M24 31h2M31 31h1M37 31h1M4 32h3M10 32h3M16 32h3M23 32h3M29 32h3M35 32h3M4 33h3M10 33h3M16 33h3M23 33h3M29 33h3M35 33h3M2 34h2M8 34h2M15 34h1M21 34h2M27 34h2M34 34h1" />
<path stroke="#663931" d="M0 35h2M7 35h1M13 35h2M19 35h2M26 35h1M32 35h2M0 36h2M7 36h1M13 36h2M19 36h2M26 36h1M32 36h2M4 37h1M10 37h2M16 37h2M23 37h1M29 37h2M35 37h2" />
<path stroke="#663229" d="M2 35h2M8 35h2M15 35h1M21 35h2M27 35h2M34 35h1M2 36h2M8 36h2M15 36h1M21 36h2M27 36h2M34 36h1M5 37h2M12 37h1M18 37h1M24 37h2M31 37h1M37 37h1" />
<path stroke="#008700" d="M2 37h2M8 37h2M15 37h1M21 37h2M27 37h2M34 37h1" />
</svg>