<svg xmlns="http://www.w3.org/2000/svg" viewBox="0 -0.5 34 34" shape-rendering="crispEdges">
<metadata>Made with Pixels to Svg https://codepen.io/shshaw/pen/XbxvNj</metadata>
<path stroke="#005aad" d="M0 0h2M6 0h2M0 1h2M6 1h2M27 2h2M30 2h2M16 6h1M24 6h1M16 7h1M24 7h1M2 10h1M6 10h2M29 14h1M33 14h1M29 15h1M33 15h1M2 17h1M8 17h2M2 18h1M8 18h2M21 19h1M27 19h2M21 20h1M27 20h2M8 25h2M16 25h1M8 26h2M16 26h1M29 32h1M33 32h1M0 33h2M5 33h1" />
<path stroke="#004f99" d="M2 0h4M2 1h4M29 2h1M17 6h7M17 7h7M3 10h3M30 14h3M30 15h3M3 17h5M3 18h5M22 19h5M22 20h5M10 25h6M10 26h6M30 32h3M2 33h3" />
<path stroke="#0065c4" d="M8 0h26M8 1h26M0 2h27M32 2h2M0 3h34M0 4h34M0 5h34M0 6h16M25 6h9M0 7h16M25 7h9M0 8h34M0 9h34M0 10h2M8 10h26M0 11h34M0 12h34M0 13h34M0 14h29M0 15h29M0 16h34M0 17h2M10 17h24M0 18h2M10 18h24M0 19h21M29 19h5M0 20h21M29 20h5M0 21h34M0 22h34M0 23h34M0 24h34M0 25h8M17 25h17M0 26h8M17 26h17M0 27h34M0 28h34M0 29h34M0 30h34M0 31h34M0 32h29M6 33h28" />
</svg>