<svg width="32" height="34" viewBox="0 0 32 34" fill="none" xmlns="http://www.w3.org/2000/svg">
<path d="M3.25 2.72143L16.0627 1L28.748 2.72143V20.6842L28.4295 23.1833L27.5355 25.4781L26.0707 27.6158L24.1584 29.4245L22.246 30.6717L20.1424 31.6232L15.6165 33L10.7082 31.298L8.60458 30.0951L6.84053 28.6653L5.35359 26.9652L4.18815 24.9681L3.48668 22.8645L3.25 20.6842V2.72143Z" fill="#F03134"/>
<path d="M3.25 20.6842L3.48668 22.8645L4.18815 24.9681L5.35359 26.9652L6.84053 28.6653L8.60458 30.0951L10.7082 31.298L15.6165 33L20.1424 31.6232L22.246 30.6717L24.1584 29.4245L26.0707 27.6158L27.5355 25.4781L28.4295 23.1833L28.748 20.6842C28.748 25.736 24.9076 30.2443 19.1493 31.9522L15.6165 33L12.7795 32.1065C7.0413 30.2993 3.25 25.7549 3.25 20.6842Z" fill="#F03134"/>
<path d="M28.748 20.6842V2.72143L16.0627 1L3.25 2.72143V20.6842M28.748 20.6842C28.748 25.736 24.9076 30.2443 19.1493 31.9522L15.6165 33M28.748 20.6842L28.4295 23.1833L27.5355 25.4781L26.0707 27.6158L24.1584 29.4245L22.246 30.6717L20.1424 31.6232L15.6165 33M3.25 20.6842C3.25 25.7549 7.0413 30.2993 12.7795 32.1065L15.6165 33M3.25 20.6842L3.48668 22.8645L4.18815 24.9681L5.35359 26.9652L6.84053 28.6653L8.60458 30.0951L10.7082 31.298L15.6165 33" stroke="black" stroke-width="0.8"/>
<path d="M4.2699 3.85231L15.9936 2.2749L27.6006 3.85231V20.3122L27.3545 22.4183L26.7081 24.2693L25.5924 26.1155L24.1317 27.7092L22.1538 29.1753L20.0787 30.2014L15.5853 31.5976L11.2181 30.0959L9.53107 29.1753L8.03085 28.0587L6.50097 26.4708L5.26234 24.5219L4.51081 22.4183L4.2699 20.3122V3.85231Z" fill="#FFFAEF"/>
<path d="M4.2699 20.3122L4.51081 22.4183L5.26234 24.5219L6.50097 26.4708L8.03085 28.0587L9.53107 29.1753L11.2181 30.0959L15.5853 31.5976L20.0787 30.2014L22.1538 29.1753L24.1317 27.7092L25.5924 26.1155L26.7081 24.2693L27.3545 22.4183L27.6006 20.3122C27.6006 24.9414 24.0866 29.0725 18.8178 30.6375L15.5853 31.5976L12.9894 30.7789C7.73894 29.1229 4.2699 24.9587 4.2699 20.3122Z" fill="#FFFAEF"/>
<path d="M5.28979 4.96947L15.9884 3.5498L26.5806 4.96947V19.7834L26.3622 21.6534L25.7823 23.3108L24.825 24.9044L23.3934 26.4599L21.7998 27.6449L19.9511 28.5892L15.6159 29.9402L13.0667 29.146L10.9631 28.2624L8.85952 26.8707L7.32964 25.3309L6.1923 23.5657L5.50371 21.6534L5.28979 19.7834V4.96947Z" fill="#F03134"/>
<path d="M5.28979 19.7834L5.50371 21.6534L6.1923 23.5657L7.32964 25.3309L8.85952 26.8707L10.9631 28.2624L13.0667 29.146L15.6159 29.9402L19.9511 28.5892L21.7998 27.6449L23.3934 26.4599L24.825 24.9044L25.7823 23.3108L26.3622 21.6534L26.5806 19.7834C26.5806 23.9496 23.3739 27.6676 18.5657 29.0761L15.6159 29.9402L13.2469 29.2034C8.45553 27.713 5.28979 23.9652 5.28979 19.7834Z" fill="#F03134"/>
</svg>
