<svg width="32" height="32" viewBox="0 0 32 32" fill="none" xmlns="http://www.w3.org/2000/svg">
<path d="M3 1L15.8091 5.71548L28.4908 1V18.9577L28.1723 21.456L27.2786 23.7502L25.8143 25.8873L23.9025 27.6955L21.9906 28.9423L19.8877 29.8936L15.363 31.27L10.4561 29.5685L8.35307 28.3659L6.58952 26.9366L5.10299 25.2369L3.93788 23.2404L3.23662 21.1374L3 18.9577V1Z" fill="#F03134"/>
<path d="M3 18.9577L3.23662 21.1374L3.93788 23.2404L5.10299 25.2369L6.58952 26.9366L8.35307 28.3659L10.4561 29.5685L15.363 31.27L19.8877 29.8936L21.9906 28.9423L23.9025 27.6955L25.8143 25.8873L27.2786 23.7502L28.1723 21.456L28.4908 18.9577C28.4908 24.0081 24.6515 28.5151 18.8948 30.2225L15.363 31.27L12.5268 30.3767C6.79023 28.5701 3 24.027 3 18.9577Z" fill="#F03134"/>
<path d="M28.4908 18.9577V1L15.8091 5.71548L3 1V18.9577M28.4908 18.9577C28.4908 24.0081 24.6515 28.5151 18.8948 30.2225L15.363 31.27M28.4908 18.9577L28.1723 21.456L27.2786 23.7502L25.8143 25.8873L23.9025 27.6955L21.9906 28.9423L19.8877 29.8936L15.363 31.27M3 18.9577C3 24.027 6.79023 28.5701 12.5268 30.3767L15.363 31.27M3 18.9577L3.23662 21.1374L3.93788 23.2404L5.10299 25.2369L6.58952 26.9366L8.35307 28.3659L10.4561 29.5685L15.363 31.27" stroke="black" stroke-width="0.8"/>
<path d="M4.14708 2.52942L15.8674 6.84408L27.4712 2.52942V18.9607L27.1798 21.2467L26.362 23.3459L25.0221 25.3013L23.2728 26.9558L21.5235 28.0966L19.5993 28.9671L15.4593 30.2265L10.9694 28.6696L9.04514 27.5692L7.43149 26.2614L6.07132 24.7062L5.00524 22.8794L4.36358 20.9551L4.14708 18.9607V2.52942Z" fill="#FFFAEF"/>
<path d="M4.14708 18.9607L4.36358 20.9551L5.00524 22.8794L6.07132 24.7062L7.43149 26.2614L9.04514 27.5692L10.9694 28.6696L15.4593 30.2265L19.5993 28.9671L21.5235 28.0966L23.2728 26.9558L25.0221 25.3013L26.362 23.3459L27.1798 21.2467L27.4712 18.9607C27.4712 23.5818 23.9582 27.7057 18.6909 29.268L15.4593 30.2265L12.8641 29.4091C7.61514 27.756 4.14708 23.5991 4.14708 18.9607Z" fill="#FFFAEF"/>
<path d="M5.16672 3.93146L15.8623 7.86888L26.4515 3.93146V18.9261L26.1856 21.0123L25.4394 22.9279L24.2166 24.7124L22.6203 26.2222L21.0239 27.2633L19.2679 28.0576L15.4899 29.2069L11.3925 27.7862L9.63653 26.782L8.16396 25.5885L6.92271 24.1693L5.94985 22.5022L5.36429 20.7462L5.16672 18.9261V3.93146Z" fill="#F03134"/>
<path d="M5.16672 18.9261L5.36429 20.7462L5.94985 22.5022L6.92271 24.1693L8.16396 25.5885L9.63653 26.782L11.3925 27.7862L15.4899 29.2069L19.2679 28.0576L21.0239 27.2633L22.6203 26.2222L24.2166 24.7124L25.4394 22.9279L26.1856 21.0123L26.4515 18.9261C26.4515 23.1432 23.2457 26.9066 18.4389 28.3322L15.4899 29.2069L13.1216 28.461C8.33156 26.9525 5.16672 23.159 5.16672 18.9261Z" fill="#F03134"/>
</svg>
