<svg width="34" height="32" viewBox="0 0 34 32" fill="none" xmlns="http://www.w3.org/2000/svg">
<path d="M1.13403 4.26801L16.9432 1.26801L32.634 4.26801L29.6248 19.2257L29.3064 21.7241L28.4126 24.0182L26.9483 26.1553L25.0365 27.9635L23.1247 29.2103L21.0217 30.1616L16.4971 31.538L11.5901 29.8365L9.4871 28.6339L7.72355 27.2046L6.23702 25.5049L5.07192 23.5084L4.37065 21.4054L4.13403 19.2257L1.13403 4.26801Z" fill="#FFFAEF"/>
<path d="M4.13403 19.2257L4.37065 21.4054L5.07192 23.5084L6.23702 25.5049L7.72355 27.2046L9.4871 28.6339L11.5901 29.8365L16.4971 31.538L21.0217 30.1616L23.1247 29.2103L25.0365 27.9635L26.9483 26.1553L28.4126 24.0182L29.3064 21.7241L29.6248 19.2257C29.6248 24.2761 25.7855 28.7831 20.0289 30.4905L16.4971 31.538L13.6608 30.6447C7.92426 28.8381 4.13403 24.295 4.13403 19.2257Z" fill="#FFFAEF"/>
<path d="M29.6248 19.2257L32.634 4.26801L16.9432 1.26801L1.13403 4.26801L4.13403 19.2257M29.6248 19.2257C29.6248 24.2761 25.7855 28.7831 20.0289 30.4905L16.4971 31.538M29.6248 19.2257L29.3064 21.7241L28.4126 24.0182L26.9483 26.1553L25.0365 27.9635L23.1247 29.2103L21.0217 30.1616L16.4971 31.538M4.13403 19.2257C4.13403 24.295 7.92426 28.8381 13.6608 30.6447L16.4971 31.538M4.13403 19.2257L4.37065 21.4054L5.07192 23.5084L6.23702 25.5049L7.72355 27.2046L9.4871 28.6339L11.5901 29.8365L16.4971 31.538" stroke="black" stroke-width="0.8"/>
<path d="M2.33997 5.15728L16.8069 2.41199L31.1655 5.15728L28.4118 18.845L28.1204 21.1313L27.3025 23.2307L25.9625 25.1863L24.213 26.841L22.4635 27.9819L20.5391 28.8524L16.3986 30.112L11.9083 28.555L9.98384 27.4544L8.37002 26.1465L7.0097 24.5911L5.94351 22.7641L5.30178 20.8397L5.08526 18.845L2.33997 5.15728Z" fill="#F03134"/>
<path d="M5.08526 18.845L5.30178 20.8397L5.94351 22.7641L7.0097 24.5911L8.37002 26.1465L9.98384 27.4544L11.9083 28.555L16.3986 30.112L20.5391 28.8524L22.4635 27.9819L24.213 26.841L25.9625 25.1863L27.3025 23.2307L28.1204 21.1313L28.4118 18.845C28.4118 23.4666 24.8985 27.591 19.6306 29.1534L16.3986 30.112L13.8032 29.2946C8.55369 27.6413 5.08526 23.4839 5.08526 18.845Z" fill="#F03134"/>
<path d="M3.41199 6.1312L16.6559 3.61798L29.8008 6.1312L27.2798 18.6618L27.0131 20.7548L26.2643 22.6767L25.0376 24.467L23.436 25.9819L21.8344 27.0263L20.0726 27.8233L16.2822 28.9763L12.1714 27.5509L10.4097 26.5435L8.93228 25.3461L7.68696 23.9222L6.71091 22.2496L6.12343 20.4879L5.9252 18.6618L3.41199 6.1312Z" fill="#FFFAEF"/>
<path d="M5.9252 18.6618L6.12343 20.4879L6.71091 22.2496L7.68696 23.9222L8.93228 25.3461L10.4097 26.5435L12.1714 27.5509L16.2822 28.9763L20.0726 27.8233L21.8344 27.0263L23.436 25.9819L25.0376 24.467L26.2643 22.6767L27.0131 20.7548L27.2798 18.6618C27.2798 22.8928 24.0635 26.6684 19.2409 28.0988L16.2822 28.9763L13.9062 28.228C9.10043 26.7145 5.9252 22.9086 5.9252 18.6618Z" fill="#FFFAEF"/>
</svg>
