<svg width="33" height="34" viewBox="0 0 33 34" fill="none" xmlns="http://www.w3.org/2000/svg">
<path d="M3.49805 2.72143L16.3108 1L28.9961 2.72143V20.6842L28.6775 23.1833L27.7835 25.4781L26.3188 27.6158L24.4064 29.4245L22.4941 30.6717L20.3905 31.6232L15.8646 33L10.9562 31.298L8.85263 30.0951L7.08858 28.6653L5.60163 26.9652L4.4362 24.9681L3.73473 22.8645L3.49805 20.6842V2.72143Z" fill="#FF9933"/>
<path d="M3.49805 20.6842L3.73473 22.8645L4.4362 24.9681L5.60163 26.9652L7.08858 28.6653L8.85263 30.0951L10.9562 31.298L15.8646 33L20.3905 31.6232L22.4941 30.6717L24.4064 29.4245L26.3188 27.6158L27.7835 25.4781L28.6775 23.1833L28.9961 20.6842C28.9961 25.736 25.1557 30.2443 19.3974 31.9522L15.8646 33L13.0275 32.1065C7.28935 30.2993 3.49805 25.7549 3.49805 20.6842Z" fill="#FF9933"/>
<path d="M28.9961 20.6842V2.72143L16.3108 1L3.49805 2.72143V20.6842M28.9961 20.6842C28.9961 25.736 25.1557 30.2443 19.3974 31.9522L15.8646 33M28.9961 20.6842L28.6775 23.1833L27.7835 25.4781L26.3188 27.6158L24.4064 29.4245L22.4941 30.6717L20.3905 31.6232L15.8646 33M3.49805 20.6842C3.49805 25.7549 7.28935 30.2993 13.0275 32.1065L15.8646 33M3.49805 20.6842L3.73473 22.8645L4.4362 24.9681L5.60163 26.9652L7.08858 28.6653L8.85263 30.0951L10.9562 31.298L15.8646 33" stroke="black" stroke-width="0.8"/>
<path d="M4.51794 3.85231L16.2416 2.2749L27.8486 3.85231V20.3122L27.6026 22.4183L26.9562 24.2693L25.8405 26.1155L24.3797 27.7092L22.4018 29.1753L20.3267 30.2014L15.8333 31.5976L11.4662 30.0959L9.77912 29.1753L8.2789 28.0587L6.74902 26.4708L5.51039 24.5219L4.75886 22.4183L4.51794 20.3122V3.85231Z" fill="#128807"/>
<path d="M4.51794 20.3122L4.75886 22.4183L5.51039 24.5219L6.74902 26.4708L8.2789 28.0587L9.77912 29.1753L11.4662 30.0959L15.8333 31.5976L20.3267 30.2014L22.4018 29.1753L24.3797 27.7092L25.8405 26.1155L26.9562 24.2693L27.6026 22.4183L27.8486 20.3122C27.8486 24.9414 24.3347 29.0725 19.0658 30.6375L15.8333 31.5976L13.2374 30.7789C7.98699 29.1229 4.51794 24.9587 4.51794 20.3122Z" fill="#128807"/>
<path d="M5.53784 4.96947L16.2365 3.5498L26.8287 4.96947V19.7834L26.6102 21.6534L26.0303 23.3108L25.073 24.9044L23.6414 26.4599L22.0478 27.6449L20.1992 28.5892L15.8639 29.9402L13.3147 29.146L11.2111 28.2624L9.10756 26.8707L7.57768 25.3309L6.44034 23.5657L5.75176 21.6534L5.53784 19.7834V4.96947Z" fill="#FF9933"/>
<path d="M5.53784 19.7834L5.75176 21.6534L6.44034 23.5657L7.57768 25.3309L9.10756 26.8707L11.2111 28.2624L13.3147 29.146L15.8639 29.9402L20.1992 28.5892L22.0478 27.6449L23.6414 26.4599L25.073 24.9044L26.0303 23.3108L26.6102 21.6534L26.8287 19.7834C26.8287 23.9496 23.622 27.6676 18.8138 29.0761L15.8639 29.9402L13.495 29.2034C8.70358 27.713 5.53784 23.9652 5.53784 19.7834Z" fill="#FF9933"/>
</svg>
