<svg width="32" height="32" viewBox="0 0 32 32" fill="none" xmlns="http://www.w3.org/2000/svg">
<path d="M3 1L15.8125 5.71673L28.4975 1V18.9624L28.179 21.4615L27.285 23.7562L25.8203 25.8939L23.908 27.7026L21.9957 28.9497L19.8921 29.9012L15.3663 31.278L10.458 29.5761L8.35448 28.3731L6.59047 26.9434L5.10355 25.2433L3.93813 23.2463L3.23668 21.1427L3 18.9624V1Z" fill="#FFFAEF"/>
<path d="M3 18.9624L3.23668 21.1427L3.93813 23.2463L5.10355 25.2433L6.59047 26.9434L8.35448 28.3731L10.458 29.5761L15.3663 31.278L19.8921 29.9012L21.9957 28.9497L23.908 27.7026L25.8203 25.8939L27.285 23.7562L28.179 21.4615L28.4975 18.9624C28.4975 24.0142 24.6572 28.5224 18.899 30.2302L15.3663 31.278L12.5293 30.3845C6.79123 28.5774 3 24.0331 3 18.9624Z" fill="#FFFAEF"/>
<path d="M3 1L3.13819 0.624628L2.6 0.426503V1H3ZM28.4975 1H28.8975V0.424509L28.3581 0.62508L28.4975 1ZM15.8125 5.71673L15.6743 6.0921L15.8132 6.14322L15.9519 6.09165L15.8125 5.71673ZM15.3663 31.278L15.2461 31.6595L15.3628 31.6963L15.48 31.6615L15.3663 31.278ZM12.5293 30.3845L12.6495 30.003L12.5293 30.3845ZM18.899 30.2302L19.0128 30.6137L18.899 30.2302ZM6.59047 26.9434L6.28937 27.2068L6.31196 27.2326L6.33861 27.2542L6.59047 26.9434ZM3.93813 23.2463L3.55867 23.3728L3.57178 23.4121L3.59266 23.4479L3.93813 23.2463ZM3.23668 21.1427L2.83901 21.1859L2.84364 21.2286L2.85722 21.2693L3.23668 21.1427ZM5.10355 25.2433L4.75807 25.4449L4.77732 25.4779L4.80245 25.5066L5.10355 25.2433ZM10.458 29.5761L10.2595 29.9233L10.2918 29.9418L10.327 29.954L10.458 29.5761ZM8.35448 28.3731L8.10262 28.6839L8.12779 28.7043L8.15591 28.7203L8.35448 28.3731ZM23.908 27.7026L24.1265 28.0376L24.1567 28.0179L24.1828 27.9932L23.908 27.7026ZM19.8921 29.9012L20.0085 30.2839L20.0333 30.2764L20.057 30.2657L19.8921 29.9012ZM21.9957 28.9497L22.1605 29.3141L22.1885 29.3015L22.2142 29.2847L21.9957 28.9497ZM27.285 23.7562L27.615 23.9823L27.641 23.9443L27.6577 23.9014L27.285 23.7562ZM25.8203 25.8939L26.0951 26.1845L26.1261 26.1552L26.1503 26.12L25.8203 25.8939ZM28.179 21.4615L28.5517 21.6066L28.5696 21.5608L28.5758 21.512L28.179 21.4615ZM28.0975 1V18.9624H28.8975V1H28.0975ZM3.4 18.9624V1H2.6V18.9624H3.4ZM2.86181 1.37537L15.6743 6.0921L15.9507 5.34135L3.13819 0.624628L2.86181 1.37537ZM15.9519 6.09165L28.6369 1.37492L28.3581 0.62508L15.6731 5.34181L15.9519 6.09165ZM18.7853 29.8467L15.2526 30.8945L15.48 31.6615L19.0128 30.6137L18.7853 29.8467ZM15.4865 30.8965L12.6495 30.003L12.4091 30.766L15.2461 31.6595L15.4865 30.8965ZM2.6 18.9624C2.6 24.2472 6.54557 28.9193 12.4091 30.766L12.6495 30.003C7.0369 28.2354 3.4 23.8189 3.4 18.9624H2.6ZM28.0975 18.9624C28.0975 23.7961 24.4165 28.1765 18.7853 29.8467L19.0128 30.6137C24.898 28.8682 28.8975 24.2322 28.8975 18.9624H28.0975ZM4.31759 23.1197L3.61614 21.0162L2.85722 21.2693L3.55867 23.3728L4.31759 23.1197ZM3.63434 21.0996L3.39766 18.9193L2.60234 19.0056L2.83901 21.1859L3.63434 21.0996ZM6.89156 26.6801L5.40464 24.98L4.80245 25.5066L6.28937 27.2068L6.89156 26.6801ZM5.44902 25.0417L4.28361 23.0447L3.59266 23.4479L4.75807 25.4449L5.44902 25.0417ZM15.4973 30.9001L10.5891 29.1982L10.327 29.954L15.2353 31.6559L15.4973 30.9001ZM10.6566 29.2288L8.55305 28.0259L8.15591 28.7203L10.2595 29.9233L10.6566 29.2288ZM8.60634 28.0624L6.84232 26.6327L6.33861 27.2542L8.10262 28.6839L8.60634 28.0624ZM19.7757 29.5185L15.2499 30.8953L15.4827 31.6607L20.0085 30.2839L19.7757 29.5185ZM23.6895 27.3675L21.7772 28.6146L22.2142 29.2847L24.1265 28.0376L23.6895 27.3675ZM21.8308 28.5852L19.7273 29.5368L20.057 30.2657L22.1605 29.3141L21.8308 28.5852ZM26.955 23.5301L25.4903 25.6678L26.1503 26.12L27.615 23.9823L26.955 23.5301ZM25.5454 25.6033L23.6331 27.412L24.1828 27.9932L26.0951 26.1845L25.5454 25.6033ZM28.1007 18.9119L27.7822 21.4109L28.5758 21.512L28.8943 19.013L28.1007 18.9119ZM27.8063 21.3163L26.9123 23.611L27.6577 23.9014L28.5517 21.6066L27.8063 21.3163Z" fill="black"/>
<path d="M4.14738 2.52985L15.8708 6.84565L27.4776 2.52985V18.9655L27.1862 21.2521L26.3682 23.3518L25.028 25.3077L23.2782 26.9627L21.5284 28.1038L19.6037 28.9745L15.4626 30.2342L10.9715 28.677L9.04673 27.5763L7.43266 26.2681L6.07213 24.7125L5.00577 22.8852L4.36394 20.9604L4.14738 18.9655V2.52985Z" fill="#128807"/>
<path d="M4.14738 18.9655L4.36394 20.9604L5.00577 22.8852L6.07213 24.7125L7.43266 26.2681L9.04673 27.5763L10.9715 28.677L15.4626 30.2342L19.6037 28.9745L21.5284 28.1038L23.2782 26.9627L25.028 25.3077L26.3682 23.3518L27.1862 21.2521L27.4776 18.9655C27.4776 23.5878 23.9637 27.7128 18.695 29.2755L15.4626 30.2342L12.8667 29.4167C7.61636 27.7631 4.14738 23.6051 4.14738 18.9655Z" fill="#128807"/>
<path d="M5.1673 3.93219L15.8657 7.87066L26.4577 3.93219V18.9308L26.1918 21.0175L25.4453 22.9336L24.2222 24.7186L22.6255 26.2288L21.0287 27.2702L19.2722 28.0647L15.4932 29.2143L11.3948 27.7932L9.63829 26.7887L8.16534 25.5949L6.92376 24.1753L5.95064 22.5078L5.36492 20.7514L5.1673 18.9308V3.93219Z" fill="#FFFAEF"/>
<path d="M5.1673 18.9308L5.36492 20.7514L5.95064 22.5078L6.92376 24.1753L8.16534 25.5949L9.63829 26.7887L11.3948 27.7932L15.4932 29.2143L19.2722 28.0647L21.0287 27.2702L22.6255 26.2288L24.2222 24.7186L25.4453 22.9336L26.1918 21.0175L26.4577 18.9308C26.4577 23.149 23.2511 26.9134 18.443 28.3394L15.4932 29.2143L13.1243 28.4683C8.33298 26.9593 5.1673 23.1648 5.1673 18.9308Z" fill="#FFFAEF"/>
</svg>
