<svg width="32" height="32" viewBox="0 0 32 32" fill="none" xmlns="http://www.w3.org/2000/svg">
<path d="M3 1L15.8125 5.71673L28.4975 1V18.9624L28.179 21.4615L27.285 23.7562L25.8203 25.8939L23.908 27.7026L21.9957 28.9497L19.8921 29.9012L15.3663 31.278L10.458 29.5761L8.35448 28.3731L6.59047 26.9434L5.10355 25.2433L3.93813 23.2463L3.23668 21.1427L3 18.9624V1Z" fill="#121212"/>
<path d="M3 18.9624L3.23668 21.1427L3.93813 23.2463L5.10355 25.2433L6.59047 26.9434L8.35448 28.3731L10.458 29.5761L15.3663 31.278L19.8921 29.9012L21.9957 28.9497L23.908 27.7026L25.8203 25.8939L27.285 23.7562L28.179 21.4615L28.4975 18.9624C28.4975 24.0142 24.6572 28.5224 18.899 30.2302L15.3663 31.278L12.5293 30.3845C6.79123 28.5774 3 24.0331 3 18.9624Z" fill="#121212"/>
<path d="M28.4975 18.9624V1L15.8125 5.71673L3 1V18.9624M28.4975 18.9624C28.4975 24.0142 24.6572 28.5224 18.899 30.2302L15.3663 31.278M28.4975 18.9624L28.179 21.4614L27.285 23.7562L25.8203 25.8939L23.908 27.7026L21.9957 28.9497L19.8921 29.9012L15.3663 31.278M3 18.9624C3 24.0331 6.79123 28.5774 12.5293 30.3845L15.3663 31.278M3 18.9624L3.23668 21.1427L3.93813 23.2463L5.10355 25.2433L6.59047 26.9434L8.35448 28.3731L10.458 29.5761L15.3663 31.278" stroke="black" stroke-width="0.8"/>
<path d="M4.1474 2.52985L15.8708 6.84565L27.4776 2.52985V18.9655L27.1862 21.2521L26.3682 23.3518L25.028 25.3077L23.2782 26.9627L21.5284 28.1038L19.6037 28.9745L15.4626 30.2342L10.9715 28.677L9.04675 27.5763L7.43268 26.2681L6.07214 24.7125L5.00579 22.8852L4.36396 20.9604L4.1474 18.9655V2.52985Z" fill="#FFFAEF"/>
<path d="M4.1474 18.9655L4.36396 20.9604L5.00579 22.8852L6.07214 24.7125L7.43268 26.2681L9.04675 27.5763L10.9715 28.677L15.4626 30.2342L19.6037 28.9745L21.5284 28.1038L23.2782 26.9627L25.028 25.3077L26.3682 23.3518L27.1862 21.2521L27.4776 18.9655C27.4776 23.5878 23.9638 27.7128 18.695 29.2755L15.4626 30.2342L12.8667 29.4167C7.61638 27.7631 4.1474 23.6051 4.1474 18.9655Z" fill="#FFFAEF"/>
<path d="M5.1673 3.93219L15.8657 7.87066L26.4577 3.93219V18.9308L26.1918 21.0175L25.4453 22.9336L24.2222 24.7186L22.6255 26.2288L21.0287 27.2702L19.2722 28.0647L15.4932 29.2143L11.3948 27.7932L9.63829 26.7887L8.16534 25.5949L6.92376 24.1753L5.95064 22.5078L5.36492 20.7514L5.1673 18.9308V3.93219Z" fill="#121212"/>
<path d="M5.1673 18.9308L5.36492 20.7514L5.95064 22.5078L6.92376 24.1753L8.16534 25.5949L9.63829 26.7887L11.3948 27.7932L15.4932 29.2143L19.2722 28.0647L21.0287 27.2702L22.6255 26.2288L24.2222 24.7186L25.4453 22.9336L26.1918 21.0175L26.4577 18.9308C26.4577 23.149 23.2511 26.9134 18.443 28.3394L15.4932 29.2143L13.1243 28.4683C8.33298 26.9593 5.1673 23.1648 5.1673 18.9308Z" fill="#121212"/>
</svg>
