<svg width="32" height="34" viewBox="0 0 32 34" fill="none" xmlns="http://www.w3.org/2000/svg">
<path d="M3.24805 2.72143L16.0608 1L28.7461 2.72143V20.6842L28.4275 23.1833L27.5335 25.4781L26.0688 27.6158L24.1564 29.4245L22.2441 30.6717L20.1405 31.6232L15.6146 33L10.7062 31.298L8.60263 30.0951L6.83858 28.6653L5.35163 26.9652L4.1862 24.9681L3.48473 22.8645L3.24805 20.6842V2.72143Z" fill="#121212"/>
<path d="M3.24805 20.6842L3.48473 22.8645L4.1862 24.9681L5.35163 26.9652L6.83858 28.6653L8.60263 30.0951L10.7062 31.298L15.6146 33L20.1405 31.6232L22.2441 30.6717L24.1564 29.4245L26.0688 27.6158L27.5335 25.4781L28.4275 23.1833L28.7461 20.6842C28.7461 25.736 24.9057 30.2443 19.1474 31.9522L15.6146 33L12.7775 32.1065C7.03935 30.2993 3.24805 25.7549 3.24805 20.6842Z" fill="#121212"/>
<path d="M28.7461 20.6842V2.72143L16.0608 1L3.24805 2.72143V20.6842M28.7461 20.6842C28.7461 25.736 24.9057 30.2443 19.1474 31.9522L15.6146 33M28.7461 20.6842L28.4275 23.1833L27.5335 25.4781L26.0688 27.6158L24.1564 29.4245L22.2441 30.6717L20.1405 31.6232L15.6146 33M3.24805 20.6842C3.24805 25.7549 7.03935 30.2993 12.7775 32.1065L15.6146 33M3.24805 20.6842L3.48473 22.8645L4.1862 24.9681L5.35163 26.9652L6.83858 28.6653L8.60263 30.0951L10.7062 31.298L15.6146 33" stroke="black" stroke-width="0.8"/>
<path d="M4.26794 3.85231L15.9916 2.2749L27.5986 3.85231V20.3122L27.3526 22.4183L26.7062 24.2693L25.5905 26.1155L24.1297 27.7092L22.1518 29.1753L20.0767 30.2014L15.5833 31.5976L11.2162 30.0959L9.52912 29.1753L8.0289 28.0587L6.49902 26.4708L5.26039 24.5219L4.50886 22.4183L4.26794 20.3122V3.85231Z" fill="#FFFAEF"/>
<path d="M4.26794 20.3122L4.50886 22.4183L5.26039 24.5219L6.49902 26.4708L8.0289 28.0587L9.52912 29.1753L11.2162 30.0959L15.5833 31.5976L20.0767 30.2014L22.1518 29.1753L24.1297 27.7092L25.5905 26.1155L26.7062 24.2693L27.3526 22.4183L27.5986 20.3122C27.5986 24.9414 24.0847 29.0725 18.8158 30.6375L15.5833 31.5976L12.9874 30.7789C7.73699 29.1229 4.26794 24.9587 4.26794 20.3122Z" fill="#FFFAEF"/>
<path d="M5.28784 4.96947L15.9865 3.5498L26.5787 4.96947V19.7834L26.3602 21.6534L25.7803 23.3108L24.823 24.9044L23.3914 26.4599L21.7978 27.6449L19.9492 28.5892L15.6139 29.9402L13.0647 29.146L10.9611 28.2624L8.85756 26.8707L7.32768 25.3309L6.19034 23.5657L5.50176 21.6534L5.28784 19.7834V4.96947Z" fill="#121212"/>
<path d="M5.28784 19.7834L5.50176 21.6534L6.19034 23.5657L7.32768 25.3309L8.85756 26.8707L10.9611 28.2624L13.0647 29.146L15.6139 29.9402L19.9492 28.5892L21.7978 27.6449L23.3914 26.4599L24.823 24.9044L25.7803 23.3108L26.3602 21.6534L26.5787 19.7834C26.5787 23.9496 23.372 27.6676 18.5638 29.0761L15.6139 29.9402L13.245 29.2034C8.45358 27.713 5.28784 23.9652 5.28784 19.7834Z" fill="#121212"/>
</svg>
