<svg width="34" height="32" viewBox="0 0 34 32" fill="none" xmlns="http://www.w3.org/2000/svg">
<path d="M1.13403 4.26801L16.9432 1.26801L32.634 4.26801L29.6248 19.2257L29.3064 21.7241L28.4126 24.0182L26.9483 26.1553L25.0365 27.9635L23.1247 29.2103L21.0217 30.1616L16.4971 31.538L11.5901 29.8365L9.4871 28.6339L7.72355 27.2046L6.23702 25.5049L5.07192 23.5084L4.37065 21.4054L4.13403 19.2257L1.13403 4.26801Z" fill="#FFFAEF"/>
<path d="M4.13403 19.2257L4.37065 21.4054L5.07192 23.5084L6.23702 25.5049L7.72355 27.2046L9.4871 28.6339L11.5901 29.8365L16.4971 31.538L21.0217 30.1616L23.1247 29.2103L25.0365 27.9635L26.9483 26.1553L28.4126 24.0182L29.3064 21.7241L29.6248 19.2257C29.6248 24.2761 25.7855 28.7831 20.0289 30.4905L16.4971 31.538L13.6608 30.6447C7.92426 28.8381 4.13403 24.295 4.13403 19.2257Z" fill="#FFFAEF"/>
<path d="M1.13403 4.26801L1.05946 3.87502L0.662361 3.95037L0.741844 4.34667L1.13403 4.26801ZM32.634 4.26801L33.0262 4.3469L33.1058 3.95096L32.7092 3.87512L32.634 4.26801ZM29.6248 19.2257L29.2327 19.1468L29.2299 19.1609L29.228 19.1751L29.6248 19.2257ZM4.13403 19.2257L4.5317 19.1825L4.52976 19.1647L4.52622 19.147L4.13403 19.2257ZM16.9432 1.26801L17.0183 0.875122L16.9434 0.860814L16.8686 0.875019L16.9432 1.26801ZM16.4971 31.538L16.3769 31.9195L16.4936 31.9563L16.6108 31.9215L16.4971 31.538ZM13.6608 30.6447L13.781 30.2632L13.6608 30.6447ZM20.0289 30.4905L20.1426 30.874L20.0289 30.4905ZM7.72355 27.2046L7.42246 27.4679L7.44504 27.4937L7.47169 27.5153L7.72355 27.2046ZM5.07192 23.5084L4.69246 23.6349L4.70556 23.6742L4.72644 23.71L5.07192 23.5084ZM4.37065 21.4054L3.97298 21.4486L3.97762 21.4912L3.99119 21.5319L4.37065 21.4054ZM6.23702 25.5049L5.89155 25.7065L5.91079 25.7395L5.93593 25.7682L6.23702 25.5049ZM11.5901 29.8365L11.3915 30.1838L11.4239 30.2023L11.459 30.2145L11.5901 29.8365ZM9.4871 28.6339L9.23524 28.9446L9.26041 28.965L9.28853 28.9811L9.4871 28.6339ZM25.0365 27.9635L25.255 28.2986L25.2852 28.2789L25.3113 28.2541L25.0365 27.9635ZM21.0217 30.1616L21.1381 30.5443L21.1629 30.5367L21.1865 30.526L21.0217 30.1616ZM23.1247 29.2103L23.2895 29.5748L23.3175 29.5621L23.3432 29.5454L23.1247 29.2103ZM28.4126 24.0182L28.7426 24.2443L28.7686 24.2063L28.7854 24.1634L28.4126 24.0182ZM26.9483 26.1553L27.2232 26.4459L27.2541 26.4166L27.2783 26.3814L26.9483 26.1553ZM29.3064 21.7241L29.6791 21.8692L29.6969 21.8234L29.7032 21.7746L29.3064 21.7241ZM32.2419 4.18911L29.2327 19.1468L30.017 19.3046L33.0262 4.3469L32.2419 4.18911ZM4.52622 19.147L1.52622 4.18935L0.741844 4.34667L3.74184 19.3044L4.52622 19.147ZM1.20861 4.66099L17.0177 1.66099L16.8686 0.875019L1.05946 3.87502L1.20861 4.66099ZM16.868 1.66089L32.5589 4.66089L32.7092 3.87512L17.0183 0.875122L16.868 1.66089ZM19.9151 30.107L16.3833 31.1545L16.6108 31.9215L20.1426 30.874L19.9151 30.107ZM16.6172 31.1565L13.781 30.2632L13.5407 31.0263L16.3769 31.9195L16.6172 31.1565ZM3.73403 19.2257C3.73403 24.5092 7.6786 29.1801 13.5407 31.0263L13.781 30.2632C8.16993 28.4961 4.53403 24.0809 4.53403 19.2257H3.73403ZM29.2248 19.2257C29.2248 24.0581 25.5448 28.4373 19.9151 30.107L20.1426 30.874C26.0263 29.1289 30.0248 24.4942 30.0248 19.2257H29.2248ZM5.45138 23.3819L4.75011 21.2789L3.99119 21.5319L4.69246 23.6349L5.45138 23.3819ZM4.76831 21.3622L4.5317 19.1825L3.73637 19.2689L3.97298 21.4486L4.76831 21.3622ZM8.02464 26.9412L6.53812 25.2416L5.93593 25.7682L7.42246 27.4679L8.02464 26.9412ZM6.5825 25.3033L5.41739 23.3068L4.72644 23.71L5.89155 25.7065L6.5825 25.3033ZM16.6281 31.1601L11.7211 29.4586L11.459 30.2145L16.366 31.9159L16.6281 31.1601ZM11.7887 29.4893L9.68567 28.2867L9.28853 28.9811L11.3915 30.1838L11.7887 29.4893ZM9.73896 28.3231L7.97541 26.8938L7.47169 27.5153L9.23524 28.9446L9.73896 28.3231ZM20.9053 29.7789L16.3807 31.1553L16.6135 31.9207L21.1381 30.5443L20.9053 29.7789ZM24.818 27.6285L22.9062 28.8753L23.3432 29.5454L25.255 28.2986L24.818 27.6285ZM22.9598 28.8459L20.8568 29.7971L21.1865 30.526L23.2895 29.5748L22.9598 28.8459ZM28.0827 23.7921L26.6183 25.9292L27.2783 26.3814L28.7426 24.2443L28.0827 23.7921ZM26.6734 25.8647L24.7616 27.6729L25.3113 28.2541L27.2232 26.4459L26.6734 25.8647ZM29.228 19.1751L28.9096 21.6735L29.7032 21.7746L30.0216 19.2763L29.228 19.1751ZM28.9337 21.5789L28.0399 23.873L28.7854 24.1634L29.6791 21.8692L28.9337 21.5789Z" fill="black"/>
<path d="M2.33997 5.15728L16.8069 2.41199L31.1655 5.15728L28.4118 18.845L28.1204 21.1313L27.3025 23.2307L25.9625 25.1863L24.213 26.841L22.4635 27.9819L20.5391 28.8524L16.3986 30.112L11.9083 28.555L9.98384 27.4544L8.37002 26.1465L7.0097 24.5911L5.94351 22.7641L5.30178 20.8397L5.08526 18.845L2.33997 5.15728Z" fill="#015197"/>
<path d="M5.08526 18.845L5.30178 20.8397L5.94351 22.7641L7.0097 24.5911L8.37002 26.1465L9.98384 27.4544L11.9083 28.555L16.3986 30.112L20.5391 28.8524L22.4635 27.9819L24.213 26.841L25.9625 25.1863L27.3025 23.2307L28.1204 21.1313L28.4118 18.845C28.4118 23.4666 24.8985 27.591 19.6306 29.1534L16.3986 30.112L13.8032 29.2946C8.55369 27.6413 5.08526 23.4839 5.08526 18.845Z" fill="#015197"/>
<path d="M3.41199 6.1312L16.6559 3.61798L29.8008 6.1312L27.2798 18.6618L27.0131 20.7548L26.2643 22.6767L25.0376 24.467L23.436 25.9819L21.8344 27.0263L20.0726 27.8233L16.2822 28.9763L12.1714 27.5509L10.4097 26.5435L8.93228 25.3461L7.68696 23.9222L6.71091 22.2496L6.12343 20.4879L5.9252 18.6618L3.41199 6.1312Z" fill="#FFFAEF"/>
<path d="M5.9252 18.6618L6.12343 20.4879L6.71091 22.2496L7.68696 23.9222L8.93228 25.3461L10.4097 26.5435L12.1714 27.5509L16.2822 28.9763L20.0726 27.8233L21.8344 27.0263L23.436 25.9819L25.0376 24.467L26.2643 22.6767L27.0131 20.7548L27.2798 18.6618C27.2798 22.8928 24.0635 26.6684 19.2409 28.0988L16.2822 28.9763L13.9062 28.228C9.10043 26.7145 5.9252 22.9086 5.9252 18.6618Z" fill="#FFFAEF"/>
</svg>
